<?xml version="1.0" encoding="utf-8"?>
<!-- Generator: Adobe Illustrator 16.0.0, SVG Export Plug-In . SVG Version: 6.00 Build 0)  -->
<!DOCTYPE svg PUBLIC "-//W3C//DTD SVG 1.1//EN" "http://www.w3.org/Graphics/SVG/1.1/DTD/svg11.dtd">
<svg version="1.1" id="Layer_1" xmlns="http://www.w3.org/2000/svg" xmlns:xlink="http://www.w3.org/1999/xlink" x="0px" y="0px"
	 width="100%" height="100%" viewBox="0 0 650 650" xml:space="preserve">
<rect x="41.603" y="380.256" fill="none" width="379.44" height="205.464"/>
<text transform="matrix(1 0 0 1 41.604 403.9102)" font-family="'Inkburrow'" font-size="37.7866">Drag this way to see </text>
<text transform="matrix(1 0 0 1 41.604 449.2549)" font-family="'Inkburrow'" font-size="37.7866">the drawing history</text>
<g id="R09ah6_1_">
	<g>
		<path d="M60.641,494.276c0.421-1.392,0.615-2.876,1.348-4.142c2.082-3.589,4.165-7.178,6.288-10.738
			c0.651-1.089,1.473-2.026,2.513-2.742c0.932-0.645,1.857-0.658,2.606,0.109c0.76,0.779,0.252,1.706-0.244,2.404
			c-1.461,2.057-2.981,4.064-4.495,6.078c-1.278,1.697-2.547,3.404-3.326,5.454c-1.135,2.992-0.393,4.968,2.352,6.298
			c1.216,0.588,2.505,0.921,3.818,1.118c6.119,0.923,12.27,1.356,18.446,1.146c11.491-0.391,22.806-2.74,34.25-3.705
			c9.491-0.802,18.94-2.217,28.478-2.316c2.803-0.029,5.585,0.336,8.325,1.195c-0.879,0.439-1.76,0.706-2.654,0.838
			c-10.934,1.626-21.95,2.295-32.936,3.311c-10.609,0.98-21.223,1.913-31.835,2.825c-6.397,0.55-12.798,1.472-19.223,0.631
			c-4.697-0.615-9.569-0.819-13.156-4.952C61.012,496.152,60.828,495.215,60.641,494.276z"/>
		<path d="M183.816,494.062c-7.736,3.716-15.651,7.04-22.886,12.712c0.303-3.961,1.088-7.258,0.984-10.661
			c-0.079-2.633-0.782-5.116-1.329-7.638c-0.229-1.057,0.712-1.894,0.32-2.929c0.897-0.3,1.589,0.324,2.279,0.703
			c6.515,3.577,13.474,5.684,20.552,7.411C183.764,493.793,183.79,493.928,183.816,494.062z M178.147,494.594
			c-4.801-0.751-9.337-2.166-14.057-5.205c2.031,4.212,1.89,7.988,0.655,11.844C168.924,498.086,173.331,495.943,178.147,494.594z"
			/>
	</g>
</g>
</svg>
