<?xml version="1.0" encoding="utf-8"?>
<!-- Generator: Adobe Illustrator 16.0.0, SVG Export Plug-In . SVG Version: 6.00 Build 0)  -->
<!DOCTYPE svg PUBLIC "-//W3C//DTD SVG 1.1//EN" "http://www.w3.org/Graphics/SVG/1.1/DTD/svg11.dtd">
<svg version="1.1" id="Layer_1" xmlns="http://www.w3.org/2000/svg" xmlns:xlink="http://www.w3.org/1999/xlink" x="0px" y="0px"
	 width="800px" height="800px" viewBox="0 0 700 700" xml:space="preserve">
<g enable-background="new    ">
	<path d="M61.009,454.819c-1.228,1.332-3.081,2.166-5.559,2.502c-0.046,0.012-2.171,0.243-6.375,0.694
		c-0.104,0.568-0.156,1.153-0.156,1.755c0,1.146,0.197,2.403,0.591,3.77c0.59,2.039,0.886,3.886,0.886,5.542
		c-0.44,0.44-0.712,0.694-0.816,0.764c-0.208,0.14-0.556,0.227-1.042,0.261c-0.614-0.88-0.95-2.738-1.007-5.575l-0.035-6.114
		c-1.32,0.128-4.326,0.643-9.017,1.544c0.174-0.868,1.471-1.552,3.892-2.05c1.088-0.185,2.728-0.469,4.917-0.851
		c-0.104-0.903-0.163-1.506-0.174-1.807c-0.012-0.289,0.018-0.852,0.087-1.686c0.081-0.058,0.197-0.087,0.347-0.087
		c0.127,0,0.278,0.018,0.452,0.053c0.15,0.66,0.429,1.656,0.834,2.988c2.594,0,6.404-0.996,11.431-2.988
		C60.69,453.882,60.939,454.31,61.009,454.819z"/>
	<path d="M81.56,469.812c-0.568,0.984-1.112,1.477-1.633,1.477c-0.104,0-0.22-0.029-0.347-0.087
		c-1.158-0.51-2.154-2.004-2.988-4.481c-0.312-0.927-0.538-1.558-0.677-1.894c-0.718-0.603-1.424-0.903-2.12-0.903
		c-0.486,0-0.961,0.139-1.424,0.416c-0.729,0.44-1.824,1.269-3.283,2.484c-1.39,1.158-2.49,1.958-3.301,2.397
		c-0.324,0.174-0.643,0.261-0.956,0.261c-0.695,0-1.372-0.445-2.032-1.338c-0.127-0.579-0.191-1.204-0.191-1.876
		c0-0.591,0.041-1.158,0.122-1.702c0.116-0.718,0.272-2.01,0.469-3.874c0.104-1.795,0.342-4.864,0.712-9.207
		c0.139-1.332,0.504-1.998,1.094-1.998c0.371,0,0.828,0.336,1.373,1.008c0.023,0.301,0.035,0.603,0.035,0.903
		c0,1.263-0.365,3.046-1.094,5.351c-0.742,2.374-1.129,4.157-1.164,5.351c-0.058,2.015,0.063,3.572,0.365,4.673
		c0.093,0.336,0.336,0.504,0.729,0.504c0.625,0,1.627-0.411,3.005-1.233c1.286-1.216,2.675-2.328,4.169-3.336
		c0.498-0.336,1.001-0.504,1.511-0.504c1.019,0,2.067,0.655,3.145,1.964l1.32,2.797c0.463,0.787,1.222,1.21,2.275,1.268
		c0.255,0.209,0.533,0.417,0.834,0.626C81.507,469.296,81.524,469.614,81.56,469.812z"/>
	<path d="M80.292,454.768c-0.707,0.706-1.373,1.06-1.998,1.06c-0.429,0-0.837-0.165-1.225-0.495s-0.582-0.703-0.582-1.12
		s0.208-0.881,0.625-1.391c0.267-0.173,0.573-0.382,0.921-0.625c0.208-0.15,0.422-0.226,0.643-0.226
		c0.208,0,0.417,0.063,0.625,0.191v0.538c-0.382,0.371-0.62,0.62-0.712,0.747c-0.058,0.081-0.086,0.18-0.086,0.295
		c0,0.081,0.017,0.174,0.052,0.278c0.313,0.035,0.782,0.075,1.407,0.121C80.239,454.467,80.349,454.675,80.292,454.768z
		 M83.314,466.493c-0.417,0.545-0.701,0.822-0.852,0.834s-0.429-0.006-0.834-0.052c-0.498-0.729-0.776-1.807-0.833-3.231
		c-0.012-0.775-0.041-1.934-0.087-3.475c0.22,0,0.388-0.017,0.504-0.052c0.289,0.648,0.724,1.633,1.303,2.953
		C83.048,464.71,83.314,465.718,83.314,466.493z"/>
	<path d="M93.755,471.948c-0.544,0.822-1.303,1.309-2.276,1.459c-0.058-0.197-0.087-0.364-0.087-0.504
		c0.88-0.44,1.32-0.955,1.32-1.546c0-1.088-1.031-2.426-3.092-4.013l-2.05-1.599c-0.729-0.995-1.094-1.853-1.094-2.57
		c0-0.648,0.312-1.182,0.938-1.599c1.286-0.856,2.814-1.69,4.586-2.502c0.822,0.626,1.233,1.158,1.233,1.599
		c0,0.822-0.979,1.465-2.936,1.929c-0.834,0.196-1.407,0.358-1.72,0.486c-0.29,0.208-0.435,0.439-0.435,0.694
		c0,0.104,0.035,0.232,0.104,0.383c0.208,0.428,0.498,0.648,0.869,0.66c1.783,1.262,2.93,2.224,3.439,2.883
		C93.355,468.752,93.755,470.165,93.755,471.948z"/>
	<path d="M131.226,460.152c-1.205,1.575-2.803,3.145-4.794,4.708c-2.258,1.772-3.99,2.988-5.194,3.648
		c-0.869,0.475-1.569,0.585-2.102,0.33c-0.394-0.186-0.776-0.492-1.146-0.921c-0.208-0.255-0.527-0.637-0.956-1.146
		c-0.174-0.209-0.399-0.312-0.677-0.312c-0.186,0-0.388,0.046-0.608,0.139c-1.667,1.366-3.179,2.05-4.534,2.05
		c-0.533,0-1.06-0.121-1.581-0.364c-1.262-0.591-1.894-1.801-1.894-3.631c0-0.66,0.081-1.401,0.243-2.224
		c0.371,0,0.852-0.023,1.442-0.069c0.591-0.047,1.077,0.069,1.459,0.347c0,0.371-0.043,0.933-0.13,1.686s-0.13,1.314-0.13,1.685
		c0.278,0.857,0.654,1.286,1.129,1.286c0.556,0,1.69-0.557,3.405-1.668c0.637-0.417,1.286-0.625,1.946-0.625
		c0.173,0.267,0.434,0.66,0.781,1.181c0.313,0.452,0.678,0.729,1.095,0.834c2.107-0.104,4.233-0.915,6.375-2.432
		c1.471-1.043,3.179-2.612,5.125-4.708c0.162-0.023,0.399-0.069,0.712-0.139c0.046,0.081,0.069,0.156,0.069,0.226
		C131.26,460.089,131.249,460.13,131.226,460.152z"/>
	<path d="M148.598,467.536c-0.672,0.672-1.205,1.007-1.598,1.007c-0.417,0-0.846-0.307-1.286-0.92
		c-0.29-0.405-0.654-0.84-1.094-1.304c-0.267-0.277-0.614-0.417-1.042-0.417c-0.29,0-0.539,0.041-0.747,0.122
		c-0.892,0.336-2.212,1.065-3.96,2.188c-1.83,1.17-3.15,1.946-3.961,2.328c-1.598,0.741-3.046,1.123-4.343,1.146
		c-0.718,0.012-1.297-0.278-1.737-0.868c-0.394-0.533-0.591-1.17-0.591-1.911c0-1.274,1.065-2.692,3.197-4.256
		c2.05-1.518,3.787-2.276,5.211-2.276c0.162,0,0.324,0.012,0.486,0.035c0.208,0.278,0.336,0.684,0.382,1.216
		c-0.498,0.648-1.199,1.135-2.102,1.459c-0.556,0.174-1.384,0.435-2.484,0.782c-1.969,0.637-2.913,1.749-2.832,3.335
		c0.359,0.545,0.834,0.816,1.425,0.816c0.335,0,0.7-0.08,1.094-0.243c1.088-0.439,2.409-1.152,3.961-2.137
		c0.845-0.544,2.119-1.349,3.822-2.414c1.135-0.695,2.206-1.043,3.213-1.043c0.162,0,0.324,0.012,0.487,0.035
		c1.702,0.648,2.646,1.024,2.832,1.129C148.042,465.949,148.598,466.679,148.598,467.536z"/>
	<path d="M165.813,474.346c-0.799,4.806-2.333,7.365-4.604,7.678c-0.186-0.267-0.278-0.538-0.278-0.816
		c0-0.37,0.174-0.759,0.521-1.164c0.614-0.718,1.141-1.372,1.581-1.963c0.892-2.107,1.384-4.424,1.477-6.948
		c0.116-3.37-0.846-5.165-2.884-5.386c-1.98,1.229-3.434,2.148-4.36,2.763c-0.533,0.358-1.158,0.538-1.876,0.538
		c-0.823,0-1.784-0.231-2.884-0.694c-0.556-0.429-1.071-0.944-1.546-1.547c-0.59-0.752-0.886-1.4-0.886-1.945
		c0-0.255,0.075-0.498,0.226-0.729c0.255-0.394,0.938-0.591,2.05-0.591c0.787,1.031,1.592,2.004,2.415,2.919
		c0.359,0.405,0.845,0.607,1.459,0.607c0.637,0,1.413-0.208,2.328-0.625c0.44-0.44,1.112-1.083,2.015-1.929
		c0.822-0.752,1.633-1.129,2.432-1.129c1.1,1.112,1.899,2.849,2.397,5.212c0.348,1.645,0.521,3.074,0.521,4.291
		C165.917,473.442,165.882,473.929,165.813,474.346z"/>
	<path d="M197.968,470.993c-0.996,0.752-2.044,1.129-3.145,1.129c-2.536,0-4.911-1.228-7.123-3.683
		c-0.938-1.043-1.627-2.05-2.067-3.023c-1.101,0.07-2.16,0.406-3.179,1.008c-1.089,0.648-1.911,1.008-2.467,1.077
		c-0.324-0.51-0.486-0.943-0.486-1.303c0-0.231,0.063-0.429,0.191-0.591c0.602-0.787,1.882-1.192,3.839-1.216
		c0.845-0.012,1.459-0.012,1.841,0c-0.382-1.599-0.759-3.428-1.129-5.489c-0.081-0.452-0.122-1.014-0.122-1.686
		c0-0.463,0.035-0.938,0.104-1.425c0.127-0.938,0.55-1.499,1.268-1.685c0.509,0.799,0.764,1.911,0.764,3.335
		c0,0.383-0.029,0.956-0.086,1.72c-0.058,0.765-0.087,1.338-0.087,1.72c0,1.205,0.122,2.235,0.365,3.093
		c1.262,0,2.976-0.162,5.142-0.486c2.49-0.371,4.192-0.597,5.107-0.678c0.301,0.243,0.452,0.452,0.452,0.625
		c0,0.243-0.29,0.412-0.869,0.504c-1.008,0.163-1.975,0.243-2.901,0.243c-0.602,0.104-1.622,0.278-3.057,0.521l-3.041,0.504
		c1.019,1.923,2.16,3.295,3.422,4.117c1.343,0.892,3.063,1.338,5.16,1.338c0.197-0.093,0.602-0.221,1.216-0.383
		c0.127-0.034,0.231-0.052,0.313-0.052C197.777,470.229,197.968,470.483,197.968,470.993z"/>
	<path d="M210.285,464.305c-0.58,1.437-1.613,2.658-3.101,3.665c-1.488,1.008-3.002,1.512-4.543,1.512
		c-0.567,0-1.146-0.099-1.737-0.295c-1.066-0.359-1.767-1.158-2.102-2.397c0-1.691,0.619-3.058,1.859-4.1
		c1.169-0.996,2.611-1.494,4.325-1.494c0.475,0.486,0.735,0.949,0.782,1.39c-0.127,0.603-0.923,1.068-2.389,1.398
		c-1.465,0.33-2.273,0.849-2.423,1.555c0,1.239,0.654,1.905,1.963,1.998c0.162,0.012,0.324,0.017,0.486,0.017
		c1.262,0,2.432-0.312,3.509-0.938c1.135-0.66,1.934-1.552,2.397-2.676c0.116-0.277,0.174-0.55,0.174-0.816
		c0-0.949-0.631-1.939-1.894-2.971c-0.927-0.394-1.656-0.74-2.189-1.042c-0.058-0.174-0.087-0.336-0.087-0.486
		c1.807,0,3.19,0.527,4.152,1.581c0.672,0.729,1.008,1.621,1.008,2.675C210.476,463.332,210.412,463.807,210.285,464.305z"/>
	<path d="M232.139,471.948c-0.544,0.822-1.303,1.309-2.276,1.459c-0.058-0.197-0.087-0.364-0.087-0.504
		c0.88-0.44,1.32-0.955,1.32-1.546c0-1.088-1.031-2.426-3.092-4.013l-2.05-1.599c-0.729-0.995-1.094-1.853-1.094-2.57
		c0-0.648,0.312-1.182,0.938-1.599c1.286-0.856,2.814-1.69,4.586-2.502c0.822,0.626,1.233,1.158,1.233,1.599
		c0,0.822-0.979,1.465-2.936,1.929c-0.834,0.196-1.407,0.358-1.72,0.486c-0.29,0.208-0.435,0.439-0.435,0.694
		c0,0.104,0.035,0.232,0.104,0.383c0.208,0.428,0.498,0.648,0.869,0.66c1.783,1.262,2.93,2.224,3.439,2.883
		C231.739,468.752,232.139,470.165,232.139,471.948z"/>
	<path d="M244.959,461.386c-0.544,1.239-1.344,2.38-2.397,3.423c-1.205,1.192-2.392,1.876-3.561,2.05
		c-0.22-0.209-0.33-0.417-0.33-0.626c0-0.139,0.052-0.283,0.156-0.434c0.776-0.776,1.54-1.587,2.293-2.433
		c0.394-0.451,0.556-1.001,0.486-1.65c-1.17,0.128-2.264,0.632-3.283,1.512c-1.1,0.95-1.65,1.992-1.65,3.127
		c0.567,1.437,1.668,2.588,3.301,3.457l4.569,1.928c-0.023,0.14-0.035,0.348-0.035,0.626c-2.907-0.128-5.218-0.701-6.932-1.72
		c-0.973-0.579-1.667-1.355-2.084-2.328c-0.162-0.37-0.243-0.781-0.243-1.233c0-0.706,0.197-1.5,0.591-2.38
		c0.139-0.556,0.654-1.262,1.546-2.119c1.691-1.633,3.347-2.617,4.968-2.953c0.22-0.047,0.44-0.069,0.66-0.069
		c0.718,0,1.355,0.266,1.911,0.799c0.104,0.255,0.156,0.475,0.156,0.66C245.081,461.172,245.04,461.294,244.959,461.386z"/>
	<path d="M256.338,461.386c-0.544,1.239-1.344,2.38-2.397,3.423c-1.205,1.192-2.392,1.876-3.561,2.05
		c-0.22-0.209-0.33-0.417-0.33-0.626c0-0.139,0.052-0.283,0.156-0.434c0.776-0.776,1.54-1.587,2.293-2.433
		c0.394-0.451,0.556-1.001,0.486-1.65c-1.17,0.128-2.264,0.632-3.283,1.512c-1.1,0.95-1.65,1.992-1.65,3.127
		c0.567,1.437,1.668,2.588,3.301,3.457l4.569,1.928c-0.023,0.14-0.035,0.348-0.035,0.626c-2.907-0.128-5.218-0.701-6.932-1.72
		c-0.973-0.579-1.667-1.355-2.084-2.328c-0.162-0.37-0.243-0.781-0.243-1.233c0-0.706,0.197-1.5,0.591-2.38
		c0.139-0.556,0.654-1.262,1.546-2.119c1.691-1.633,3.347-2.617,4.968-2.953c0.22-0.047,0.44-0.069,0.66-0.069
		c0.718,0,1.355,0.266,1.911,0.799c0.104,0.255,0.156,0.475,0.156,0.66C256.459,461.172,256.418,461.294,256.338,461.386z"/>
</g>
<g enable-background="new    ">
	<path d="M57.361,513.687c-0.996,0.752-2.044,1.129-3.145,1.129c-2.536,0-4.911-1.228-7.123-3.683
		c-0.938-1.043-1.627-2.05-2.067-3.023c-1.101,0.07-2.16,0.406-3.179,1.008c-1.089,0.648-1.911,1.008-2.467,1.077
		c-0.324-0.51-0.486-0.943-0.486-1.303c0-0.231,0.063-0.429,0.191-0.591c0.602-0.787,1.882-1.192,3.839-1.216
		c0.845-0.012,1.459-0.012,1.841,0c-0.382-1.599-0.759-3.428-1.129-5.489c-0.081-0.452-0.122-1.014-0.122-1.686
		c0-0.463,0.035-0.938,0.104-1.425c0.127-0.938,0.55-1.499,1.268-1.685c0.509,0.799,0.764,1.911,0.764,3.335
		c0,0.383-0.029,0.956-0.086,1.72c-0.058,0.765-0.087,1.338-0.087,1.72c0,1.205,0.122,2.235,0.365,3.093
		c1.262,0,2.976-0.162,5.142-0.486c2.49-0.371,4.192-0.597,5.107-0.678c0.301,0.243,0.452,0.452,0.452,0.625
		c0,0.243-0.29,0.412-0.869,0.504c-1.008,0.163-1.975,0.243-2.901,0.243c-0.602,0.104-1.622,0.278-3.057,0.521l-3.041,0.504
		c1.019,1.923,2.16,3.295,3.422,4.117c1.343,0.892,3.063,1.338,5.16,1.338c0.197-0.093,0.602-0.221,1.216-0.383
		c0.127-0.034,0.231-0.052,0.313-0.052C57.169,512.922,57.361,513.177,57.361,513.687z"/>
	<path d="M77.946,512.505c-0.568,0.984-1.112,1.477-1.633,1.477c-0.104,0-0.22-0.029-0.347-0.087
		c-1.158-0.51-2.154-2.004-2.988-4.481c-0.312-0.927-0.538-1.558-0.677-1.894c-0.718-0.603-1.424-0.903-2.12-0.903
		c-0.486,0-0.961,0.139-1.424,0.416c-0.729,0.44-1.824,1.269-3.283,2.484c-1.39,1.158-2.49,1.958-3.301,2.397
		c-0.324,0.174-0.643,0.261-0.956,0.261c-0.695,0-1.372-0.445-2.032-1.338c-0.127-0.579-0.191-1.204-0.191-1.876
		c0-0.591,0.041-1.158,0.122-1.702c0.116-0.718,0.272-2.01,0.469-3.874c0.104-1.795,0.342-4.864,0.712-9.207
		c0.139-1.332,0.504-1.998,1.094-1.998c0.371,0,0.828,0.336,1.373,1.008c0.023,0.301,0.035,0.603,0.035,0.903
		c0,1.263-0.365,3.046-1.094,5.351c-0.742,2.374-1.129,4.157-1.164,5.351c-0.058,2.015,0.063,3.572,0.365,4.673
		c0.093,0.336,0.336,0.504,0.729,0.504c0.625,0,1.627-0.411,3.005-1.233c1.286-1.216,2.675-2.328,4.169-3.336
		c0.498-0.336,1.001-0.504,1.511-0.504c1.019,0,2.067,0.655,3.145,1.964l1.32,2.797c0.463,0.787,1.222,1.21,2.275,1.268
		c0.255,0.209,0.533,0.417,0.834,0.626C77.894,511.989,77.911,512.308,77.946,512.505z"/>
	<path d="M90.055,504.079c-0.544,1.239-1.344,2.38-2.397,3.423c-1.205,1.192-2.392,1.876-3.561,2.05
		c-0.22-0.209-0.33-0.417-0.33-0.626c0-0.139,0.052-0.283,0.156-0.434c0.776-0.776,1.54-1.587,2.293-2.433
		c0.394-0.451,0.556-1.001,0.486-1.65c-1.17,0.128-2.264,0.632-3.283,1.512c-1.1,0.95-1.65,1.992-1.65,3.127
		c0.567,1.437,1.668,2.588,3.301,3.457l4.569,1.928c-0.023,0.14-0.035,0.348-0.035,0.626c-2.907-0.128-5.218-0.701-6.932-1.72
		c-0.973-0.579-1.667-1.355-2.084-2.328c-0.162-0.37-0.243-0.781-0.243-1.233c0-0.706,0.197-1.5,0.591-2.38
		c0.139-0.556,0.654-1.262,1.546-2.119c1.691-1.633,3.347-2.617,4.968-2.953c0.22-0.047,0.44-0.069,0.66-0.069
		c0.718,0,1.355,0.266,1.911,0.799c0.104,0.255,0.156,0.475,0.156,0.66C90.176,503.865,90.135,503.987,90.055,504.079z"/>
	<path d="M119.031,505.591c-0.51,2.212-1.65,3.973-3.422,5.281c-1.726,1.273-3.735,1.899-6.028,1.876
		c-1.876-0.012-3.399-0.55-4.569-1.615c-0.66-0.603-0.99-1.32-0.99-2.154c0-0.66,0.203-1.401,0.608-2.224
		c0.799-1.192,1.928-2.154,3.388-2.884c1.401-0.706,2.843-1.06,4.326-1.06c0.509,0.637,0.764,1.176,0.764,1.615
		c0,0.186-0.046,0.354-0.139,0.504c-0.51,0.857-1.807,1.488-3.891,1.894c-0.846,0.162-1.448,0.342-1.807,0.538
		c-0.556,0.186-0.979,0.66-1.268,1.425c-0.023,0.938,0.133,1.662,0.469,2.172c0.405,0.591,1.054,0.874,1.946,0.851
		c1.645-0.034,3.289-0.33,4.934-0.886c2.479-1.517,3.694-3.781,3.648-6.792c-0.046-3.012-0.868-5.773-2.467-8.287
		c-0.671-0.439-1.645-0.77-2.918-0.989c-1.448-0.255-2.351-0.464-2.71-0.626c-0.833-0.358-1.326-1.002-1.477-1.928
		c-0.104-0.603-0.023-1.014,0.243-1.233c0.208-0.162,0.631-0.284,1.268-0.365c2.525,0,4.893,1.894,7.105,5.681
		C118.035,499.8,119.031,502.869,119.031,505.591z"/>
	<path d="M144.254,506.668c-0.51,0.625-0.996,0.938-1.459,0.938c-0.186,0-0.371-0.052-0.556-0.156
		c-0.567-0.312-1.25-0.643-2.05-0.99c-2.374,0-4.737,0.644-7.088,1.929l-6.427,3.752c-1.622,0-2.739-0.538-3.353-1.615
		c-0.405-0.706-0.689-1.992-0.851-3.856c0.301-0.637,0.625-1.03,0.973-1.182c0.243-0.104,0.77-0.156,1.581-0.156
		c0.509,0.464,0.764,1.031,0.764,1.702c0,0.209-0.041,0.516-0.122,0.921c-0.081,0.406-0.122,0.713-0.122,0.921
		c0,0.521,0.116,0.973,0.348,1.355c0.486,0.058,0.793,0.087,0.92,0.087l4.048-2.137c1.598-0.846,2.982-1.482,4.152-1.911
		c2.003-0.741,3.833-1.112,5.489-1.112c1.239,0,2.45,0.267,3.631,0.8C144.167,506.28,144.208,506.518,144.254,506.668z"/>
	<path d="M164.145,510.229c-0.672,0.672-1.205,1.007-1.598,1.007c-0.417,0-0.846-0.307-1.286-0.92
		c-0.29-0.405-0.654-0.84-1.094-1.304c-0.267-0.277-0.614-0.417-1.042-0.417c-0.29,0-0.539,0.041-0.747,0.122
		c-0.892,0.336-2.212,1.065-3.96,2.188c-1.83,1.17-3.15,1.946-3.961,2.328c-1.598,0.741-3.046,1.123-4.343,1.146
		c-0.718,0.012-1.297-0.278-1.737-0.868c-0.394-0.533-0.591-1.17-0.591-1.911c0-1.274,1.065-2.692,3.197-4.256
		c2.05-1.518,3.787-2.276,5.211-2.276c0.162,0,0.324,0.012,0.486,0.035c0.208,0.278,0.336,0.684,0.382,1.216
		c-0.498,0.648-1.199,1.135-2.102,1.459c-0.556,0.174-1.384,0.435-2.484,0.782c-1.969,0.637-2.913,1.749-2.832,3.335
		c0.359,0.545,0.834,0.816,1.425,0.816c0.335,0,0.7-0.08,1.094-0.243c1.088-0.439,2.409-1.152,3.961-2.137
		c0.845-0.544,2.119-1.349,3.822-2.414c1.135-0.695,2.206-1.043,3.213-1.043c0.162,0,0.324,0.012,0.487,0.035
		c1.702,0.648,2.646,1.024,2.832,1.129C163.589,508.643,164.145,509.372,164.145,510.229z"/>
	<path d="M190.672,502.846c-1.205,1.575-2.803,3.145-4.794,4.708c-2.258,1.772-3.99,2.988-5.194,3.648
		c-0.869,0.475-1.569,0.585-2.102,0.33c-0.394-0.186-0.776-0.492-1.146-0.921c-0.208-0.255-0.527-0.637-0.956-1.146
		c-0.174-0.209-0.399-0.312-0.677-0.312c-0.186,0-0.388,0.046-0.608,0.139c-1.667,1.366-3.179,2.05-4.534,2.05
		c-0.533,0-1.06-0.121-1.581-0.364c-1.262-0.591-1.894-1.801-1.894-3.631c0-0.66,0.081-1.401,0.243-2.224
		c0.371,0,0.852-0.023,1.442-0.069c0.591-0.047,1.077,0.069,1.459,0.347c0,0.371-0.043,0.933-0.13,1.686s-0.13,1.314-0.13,1.685
		c0.278,0.857,0.654,1.286,1.129,1.286c0.556,0,1.69-0.557,3.405-1.668c0.637-0.417,1.286-0.625,1.946-0.625
		c0.173,0.267,0.434,0.66,0.781,1.181c0.313,0.452,0.678,0.729,1.095,0.834c2.107-0.104,4.233-0.915,6.375-2.432
		c1.471-1.043,3.179-2.612,5.125-4.708c0.162-0.023,0.399-0.069,0.712-0.139c0.046,0.081,0.069,0.156,0.069,0.226
		C190.707,502.782,190.695,502.823,190.672,502.846z"/>
	<path d="M193.712,497.461c-0.707,0.706-1.373,1.06-1.998,1.06c-0.429,0-0.837-0.165-1.225-0.495s-0.582-0.703-0.582-1.12
		s0.208-0.881,0.625-1.391c0.267-0.173,0.573-0.382,0.921-0.625c0.208-0.15,0.422-0.226,0.643-0.226
		c0.208,0,0.417,0.063,0.625,0.191v0.538c-0.382,0.371-0.62,0.62-0.712,0.747c-0.058,0.081-0.086,0.18-0.086,0.295
		c0,0.081,0.017,0.174,0.052,0.278c0.313,0.035,0.782,0.075,1.407,0.121C193.66,497.16,193.77,497.368,193.712,497.461z
		 M196.735,509.187c-0.417,0.545-0.701,0.822-0.852,0.834s-0.429-0.006-0.834-0.052c-0.498-0.729-0.776-1.807-0.833-3.231
		c-0.012-0.775-0.041-1.934-0.087-3.475c0.22,0,0.388-0.017,0.504-0.052c0.289,0.648,0.724,1.633,1.303,2.953
		C196.469,507.403,196.735,508.411,196.735,509.187z"/>
	<path d="M218.849,510.837c-0.081,0.081-0.203,0.18-0.365,0.296c-0.544-0.394-1.228-1.164-2.05-2.311
		c-0.718-1.008-1.5-1.731-2.345-2.172c-1.529-0.058-2.896,0.134-4.1,0.573c-0.788,0.29-1.807,0.84-3.058,1.65
		c-1.459,0.95-2.623,1.633-3.492,2.05h-0.834c-0.683-0.683-1.239-1.661-1.667-2.936c-0.394-1.158-0.591-2.275-0.591-3.353
		l0.487-0.227c0.173-0.08,0.492-0.121,0.955-0.121c0.475,0.486,0.852,1.089,1.129,1.807c0.162,0.451,0.405,1.123,0.729,2.015
		c0.498-0.011,1.448-0.463,2.849-1.354c1.586-1.008,2.779-1.633,3.579-1.876c0.463-0.07,0.915-0.104,1.355-0.104
		c1.54,0,2.947,0.399,4.221,1.198C217.286,506.992,218.351,508.613,218.849,510.837z"/>
	<path d="M233.754,521.399c0.012,1.1-0.458,2.218-1.407,3.353c-1.935,2.316-3.868,3.475-5.802,3.475
		c-0.869,0-1.303-0.492-1.303-1.477c0.741-0.753,1.598-1.217,2.571-1.39l2.258-0.417c0.811-0.313,1.511-1.043,2.102-2.189
		c0.428-1.528,0.643-3.22,0.643-5.072c0-0.648-0.029-1.344-0.087-2.085c-0.208-2.698-0.828-5.084-1.858-7.157
		c-0.382,0-0.903,0.221-1.563,0.66c-0.73,0.476-1.263,0.747-1.598,0.816c-0.88,0.174-1.818,0.215-2.814,0.122
		c-2.143-0.209-3.271-1.036-3.388-2.484c-0.058-0.753,0.359-1.673,1.251-2.762c0.718-0.88,2.339-1.621,4.864-2.224
		c1.019-0.243,2.003-0.354,2.953-0.33c0.926,0.023,1.575,0.277,1.945,0.764c-0.648,0.974-1.436,1.466-2.362,1.478
		c-0.406,0.011-0.973-0.006-1.703-0.053c-0.776-0.034-1.337-0.052-1.685-0.052c-0.648,0-1.233,0.093-1.754,0.277
		c-0.695,0.243-1.118,1.066-1.268,2.467c0.394,1.17,1.077,1.755,2.05,1.755c0.417,0,0.892-0.11,1.424-0.33
		c1.749-0.729,3.145-1.5,4.187-2.311c0.301,0,0.515,0.047,0.643,0.139c0.162,0.163,0.318,0.325,0.469,0.487
		c0.07,2.351,0.278,4.812,0.625,7.383C233.54,517.114,233.743,519.5,233.754,521.399z"/>
	<path d="M265.632,512.505c-0.568,0.984-1.112,1.477-1.633,1.477c-0.104,0-0.22-0.029-0.347-0.087
		c-1.158-0.51-2.154-2.004-2.988-4.481c-0.312-0.927-0.538-1.558-0.677-1.894c-0.718-0.603-1.424-0.903-2.12-0.903
		c-0.486,0-0.961,0.139-1.424,0.416c-0.729,0.44-1.824,1.269-3.283,2.484c-1.39,1.158-2.49,1.958-3.301,2.397
		c-0.324,0.174-0.643,0.261-0.956,0.261c-0.695,0-1.372-0.445-2.032-1.338c-0.127-0.579-0.191-1.204-0.191-1.876
		c0-0.591,0.041-1.158,0.122-1.702c0.116-0.718,0.272-2.01,0.469-3.874c0.104-1.795,0.342-4.864,0.712-9.207
		c0.139-1.332,0.504-1.998,1.094-1.998c0.371,0,0.828,0.336,1.373,1.008c0.023,0.301,0.035,0.603,0.035,0.903
		c0,1.263-0.365,3.046-1.094,5.351c-0.742,2.374-1.129,4.157-1.164,5.351c-0.058,2.015,0.063,3.572,0.365,4.673
		c0.093,0.336,0.336,0.504,0.729,0.504c0.625,0,1.627-0.411,3.005-1.233c1.286-1.216,2.675-2.328,4.169-3.336
		c0.498-0.336,1.001-0.504,1.511-0.504c1.019,0,2.067,0.655,3.145,1.964l1.32,2.797c0.463,0.787,1.222,1.21,2.275,1.268
		c0.255,0.209,0.533,0.417,0.834,0.626C265.58,511.989,265.597,512.308,265.632,512.505z"/>
	<path d="M264.363,497.461c-0.707,0.706-1.373,1.06-1.998,1.06c-0.429,0-0.837-0.165-1.225-0.495s-0.582-0.703-0.582-1.12
		s0.208-0.881,0.625-1.391c0.267-0.173,0.573-0.382,0.921-0.625c0.208-0.15,0.422-0.226,0.643-0.226
		c0.208,0,0.417,0.063,0.625,0.191v0.538c-0.382,0.371-0.62,0.62-0.712,0.747c-0.058,0.081-0.086,0.18-0.086,0.295
		c0,0.081,0.017,0.174,0.052,0.278c0.313,0.035,0.782,0.075,1.407,0.121C264.311,497.16,264.421,497.368,264.363,497.461z
		 M267.386,509.187c-0.417,0.545-0.701,0.822-0.852,0.834s-0.429-0.006-0.834-0.052c-0.498-0.729-0.776-1.807-0.833-3.231
		c-0.012-0.775-0.041-1.934-0.087-3.475c0.22,0,0.388-0.017,0.504-0.052c0.289,0.648,0.724,1.633,1.303,2.953
		C267.12,507.403,267.386,508.411,267.386,509.187z"/>
	<path d="M277.827,514.642c-0.544,0.822-1.303,1.309-2.276,1.459c-0.058-0.197-0.087-0.364-0.087-0.504
		c0.88-0.44,1.32-0.955,1.32-1.546c0-1.088-1.031-2.426-3.092-4.013l-2.05-1.599c-0.729-0.995-1.094-1.853-1.094-2.57
		c0-0.648,0.312-1.182,0.938-1.599c1.286-0.856,2.814-1.69,4.586-2.502c0.822,0.626,1.233,1.158,1.233,1.599
		c0,0.822-0.979,1.465-2.936,1.929c-0.834,0.196-1.407,0.358-1.72,0.486c-0.29,0.208-0.435,0.439-0.435,0.694
		c0,0.104,0.035,0.232,0.104,0.383c0.208,0.428,0.498,0.648,0.869,0.66c1.783,1.262,2.93,2.224,3.439,2.883
		C277.427,511.445,277.827,512.858,277.827,514.642z"/>
	<path d="M297.84,513.687c-0.997,0.752-2.045,1.129-3.145,1.129c-2.536,0-4.911-1.228-7.123-3.683
		c-0.938-1.043-1.627-2.05-2.067-3.023c-1.101,0.07-2.16,0.406-3.179,1.008c-1.089,0.648-1.911,1.008-2.467,1.077
		c-0.324-0.51-0.486-0.943-0.486-1.303c0-0.231,0.063-0.429,0.191-0.591c0.602-0.787,1.882-1.192,3.839-1.216
		c0.845-0.012,1.459-0.012,1.841,0c-0.382-1.599-0.759-3.428-1.129-5.489c-0.081-0.452-0.122-1.014-0.122-1.686
		c0-0.463,0.035-0.938,0.104-1.425c0.127-0.938,0.55-1.499,1.268-1.685c0.509,0.799,0.764,1.911,0.764,3.335
		c0,0.383-0.029,0.956-0.086,1.72c-0.058,0.765-0.087,1.338-0.087,1.72c0,1.205,0.122,2.235,0.365,3.093
		c1.262,0,2.976-0.162,5.142-0.486c2.49-0.371,4.192-0.597,5.107-0.678c0.301,0.243,0.452,0.452,0.452,0.625
		c0,0.243-0.29,0.412-0.869,0.504c-1.008,0.163-1.975,0.243-2.901,0.243c-0.602,0.104-1.622,0.278-3.057,0.521l-3.041,0.504
		c1.019,1.923,2.16,3.295,3.422,4.117c1.343,0.892,3.063,1.338,5.16,1.338c0.197-0.093,0.602-0.221,1.216-0.383
		c0.127-0.034,0.231-0.052,0.313-0.052C297.648,512.922,297.84,513.177,297.84,513.687z"/>
	<path d="M310.155,506.998c-0.579,1.437-1.612,2.658-3.101,3.665c-1.488,1.008-3.003,1.512-4.543,1.512
		c-0.567,0-1.146-0.099-1.737-0.295c-1.065-0.359-1.766-1.158-2.102-2.397c0-1.691,0.619-3.058,1.858-4.1
		c1.17-0.996,2.611-1.494,4.326-1.494c0.475,0.486,0.735,0.949,0.781,1.39c-0.127,0.603-0.924,1.068-2.389,1.398
		s-2.272,0.849-2.423,1.555c0,1.239,0.654,1.905,1.963,1.998c0.162,0.012,0.324,0.017,0.486,0.017c1.262,0,2.432-0.312,3.509-0.938
		c1.135-0.66,1.935-1.552,2.397-2.676c0.115-0.277,0.174-0.55,0.174-0.816c0-0.949-0.632-1.939-1.894-2.971
		c-0.927-0.394-1.656-0.74-2.188-1.042c-0.059-0.174-0.087-0.336-0.087-0.486c1.807,0,3.19,0.527,4.151,1.581
		c0.672,0.729,1.008,1.621,1.008,2.675C310.347,506.025,310.283,506.5,310.155,506.998z"/>
	<path d="M335.692,506.668c-0.51,0.625-0.996,0.938-1.459,0.938c-0.186,0-0.371-0.052-0.556-0.156
		c-0.568-0.312-1.251-0.643-2.05-0.99c-2.375,0-4.737,0.644-7.088,1.929l-6.428,3.752c-1.622,0-2.739-0.538-3.353-1.615
		c-0.406-0.706-0.689-1.992-0.852-3.856c0.301-0.637,0.625-1.03,0.973-1.182c0.243-0.104,0.771-0.156,1.581-0.156
		c0.51,0.464,0.765,1.031,0.765,1.702c0,0.209-0.041,0.516-0.122,0.921c-0.081,0.406-0.121,0.713-0.121,0.921
		c0,0.521,0.115,0.973,0.347,1.355c0.486,0.058,0.794,0.087,0.921,0.087l4.048-2.137c1.599-0.846,2.982-1.482,4.151-1.911
		c2.004-0.741,3.834-1.112,5.49-1.112c1.239,0,2.449,0.267,3.631,0.8C335.605,506.28,335.646,506.518,335.692,506.668z"/>
	<path d="M353.272,517.039c-0.799,4.806-2.334,7.365-4.604,7.678c-0.186-0.267-0.278-0.538-0.278-0.816
		c0-0.37,0.174-0.759,0.521-1.164c0.614-0.718,1.141-1.372,1.581-1.963c0.892-2.107,1.384-4.424,1.477-6.948
		c0.115-3.37-0.846-5.165-2.884-5.386c-1.98,1.229-3.434,2.148-4.36,2.763c-0.533,0.358-1.158,0.538-1.876,0.538
		c-0.822,0-1.784-0.231-2.884-0.694c-0.556-0.429-1.071-0.944-1.546-1.547c-0.591-0.752-0.887-1.4-0.887-1.945
		c0-0.255,0.075-0.498,0.227-0.729c0.254-0.394,0.938-0.591,2.05-0.591c0.787,1.031,1.592,2.004,2.414,2.919
		c0.359,0.405,0.846,0.607,1.46,0.607c0.637,0,1.412-0.208,2.327-0.625c0.44-0.44,1.112-1.083,2.016-1.929
		c0.822-0.752,1.633-1.129,2.432-1.129c1.101,1.112,1.899,2.849,2.397,5.212c0.348,1.645,0.521,3.074,0.521,4.291
		C353.377,516.136,353.342,516.622,353.272,517.039z"/>
</g>
<g id="R09ah6_1_">
	<g>
		<path d="M57.096,555.38c0.396-1.311,0.579-2.708,1.27-3.899c1.96-3.38,3.921-6.759,5.92-10.11
			c0.613-1.025,1.387-1.908,2.366-2.582c0.877-0.607,1.749-0.619,2.454,0.103c0.716,0.733,0.237,1.606-0.229,2.264
			c-1.375,1.937-2.807,3.826-4.232,5.723c-1.203,1.598-2.398,3.205-3.131,5.135c-1.069,2.817-0.37,4.678,2.214,5.93
			c1.145,0.554,2.358,0.867,3.595,1.053c5.761,0.869,11.553,1.277,17.368,1.079c10.819-0.368,21.473-2.579,32.248-3.488
			c8.937-0.755,17.833-2.087,26.813-2.181c2.639-0.027,5.258,0.316,7.838,1.125c-0.828,0.414-1.657,0.665-2.499,0.789
			c-10.295,1.531-20.667,2.161-31.011,3.118c-9.989,0.922-19.982,1.801-29.974,2.659c-6.023,0.518-12.05,1.386-18.099,0.595
			c-4.422-0.579-9.01-0.771-12.387-4.663C57.445,557.146,57.272,556.264,57.096,555.38z"/>
		<path d="M173.07,555.179c-7.284,3.498-14.736,6.628-21.548,11.969c0.285-3.729,1.024-6.834,0.926-10.038
			c-0.074-2.479-0.736-4.816-1.251-7.191c-0.215-0.995,0.67-1.783,0.301-2.758c0.845-0.282,1.496,0.305,2.146,0.662
			c6.134,3.368,12.686,5.352,19.351,6.978C173.021,554.925,173.045,555.052,173.07,555.179z M167.732,555.68
			c-4.521-0.707-8.792-2.04-13.235-4.901c1.912,3.966,1.779,7.521,0.617,11.151C159.048,558.967,163.198,556.949,167.732,555.68z"/>
	</g>
</g>
</svg>
